# xmcd
# Track frame offsets:
# 150
# 18742
# 38046
# 56409
# 72911
# 86483
# 103070
# 126953
# 138219
# 156844
# 172613
#
# Disc length: 2483 seconds
# Revision: 0
# Processed by: cddbd v1.5.2PL0 Copyright (c) Steve Scherf et al.
# Submitted via: VisiTrax 2.10.3.257 - For more info visit www.synapsa.com
#
DISCID=8909b10b
DTITLE=Paul Eason - Mountains of Nuevo Leon, The
DYEAR=2008
DGENRE=Country
TTITLE0=Mountains of Nuevo Leon, The
TTITLE1=Maybe Tonight
TTITLE2=Already Stolen
TTITLE3=Smolder
TTITLE4=Tonight We Ride
TTITLE5=Small Town Blues
TTITLE6=Sweet Red Llano Wine
TTITLE7=Live It Up
TTITLE8=Peanut Butter
TTITLE9=If You Were Really Here
TTITLE10=Just Time
EXTD=(c) (p) 2008 Paul Eason, Texican Records\nSubmitted by Larry@LosSender
EXTD=osStudio.com
EXTT0=
EXTT1=
EXTT2=
EXTT3=
EXTT4=
EXTT5=
EXTT6=
EXTT7=
EXTT8=
EXTT9=
EXTT10=
PLAYORDER=
